# xmcd
#
# Track frame offsets:
#	150
#	13434
#	27244
#	100409
#	113871
#	128439
#	145509
#	160006
#	174209
#	188066
#	203310
#	216364
#	229319
#	248123
#	260950
#
# Disc length: 4034
#
# Revision: 1
# Processed by: cddbd v1.5.1PL0 Copyright (c) Steve Scherf et al.
# Submitted via: CDex 1.51
# Normalized: r0:TDELIM( - )
#
DISCID=ca0fc00f
DTITLE=Various Artist - Hot Summer, Cool Jazz
DYEAR=2004
DGENRE=Jazz
TTITLE0=Ella Fitzgerald - T'aint What You Do
TTITLE1=Stephane Grappelli - That Old Black Magic
TTITLE2=George Gershwin - An American In Paris
TTITLE3=Duke Ellington - Stormy Weather
TTITLE4=Billie Holiday - Can't Help Lovin' Dat Man
TTITLE5=Benny Goodman - Love Me Or Leave Me
TTITLE6=Ella Fitzgerald - I've Got A Crush On You
TTITLE7=Theolonius Monk - 'Round About Midnight
TTITLE8=Bessie Smith - Lady Luck Blues
TTITLE9=Coleman Hawkins - How Deep Is The Ocean
TTITLE10=Duke Ellington - Mood Indigo
TTITLE11=Billie Holiday - You Go To My Head
TTITLE12=Sidney Bechet - Lazy River
TTITLE13=Sarah Vaughan - I'm Through With Love
TTITLE14=George Gershwin - Rhapsody In Blue
EXTD=YEAR: 2004
EXTT0=
EXTT1=
EXTT2=
EXTT3=
EXTT4=
EXTT5=
EXTT6=
EXTT7=
EXTT8=
EXTT9=
EXTT10=
EXTT11=
EXTT12=
EXTT13=
EXTT14=
PLAYORDER=
